<?xml version="1.0" standalone="no"?>
<!DOCTYPE svg PUBLIC "-//W3C//DTD SVG 20010904//EN"
 "http://www.w3.org/TR/2001/REC-SVG-20010904/DTD/svg10.dtd">
<svg version="1.0" xmlns="http://www.w3.org/2000/svg"
 width="768.000000pt" height="542.000000pt" viewBox="0 0 768.000000 542.000000"
 preserveAspectRatio="xMidYMid meet">
<metadata>
Created by potrace 1.16, written by Peter Selinger 2001-2019
</metadata>
<g transform="translate(0.000000,542.000000) scale(0.100000,-0.100000)"
fill="#000000" stroke="none">
<path d="M3665 4914 c-16 -3 -79 -11 -140 -19 -145 -20 -262 -46 -391 -90 -58
-19 -110 -35 -116 -35 -5 0 -24 -6 -41 -14 -18 -8 -61 -27 -97 -41 -87 -36
-236 -112 -285 -147 -76 -53 -88 -63 -149 -111 -123 -98 -291 -282 -392 -431
-58 -86 -73 -108 -86 -136 -7 -14 -15 -27 -19 -30 -18 -15 -159 -288 -159
-310 0 -8 -7 -24 -15 -34 -8 -11 -15 -29 -15 -41 0 -12 -5 -26 -10 -31 -9 -9
-26 -63 -75 -239 -83 -300 -83 -802 0 -1065 8 -25 33 -106 56 -180 23 -74 46
-142 50 -150 4 -8 19 -44 34 -80 28 -69 113 -241 149 -302 32 -56 119 -182
133 -193 31 -25 91 -118 88 -136 -3 -13 2 -19 14 -19 34 0 71 -25 83 -58 8
-22 18 -32 33 -32 12 0 31 -10 42 -23 27 -29 73 -67 81 -67 9 -1 72 -58 72
-66 0 -9 28 -34 38 -34 6 0 8 -10 4 -22 -3 -14 -1 -19 6 -14 14 8 92 -13 92
-26 0 -4 7 -8 15 -8 7 0 18 -6 22 -13 4 -6 22 -19 38 -27 17 -8 32 -17 35 -21
3 -3 22 -13 43 -23 20 -9 35 -21 32 -25 -9 -15 20 -30 54 -29 25 1 40 -6 57
-25 15 -18 28 -24 43 -20 23 6 83 -15 76 -27 -2 -4 19 -10 47 -13 28 -4 54
-11 58 -17 4 -6 31 -15 61 -20 30 -5 70 -13 89 -18 53 -14 133 -30 265 -51
103 -17 139 -19 250 -11 72 5 191 9 265 10 74 0 152 5 173 11 21 6 78 14 125
18 85 8 304 59 310 73 2 4 25 14 52 23 27 9 54 23 60 31 7 7 20 14 30 14 15 0
59 17 102 41 10 5 30 9 45 10 24 0 25 2 8 8 -14 6 -1 10 43 13 35 4 68 10 75
16 7 5 33 15 60 22 26 7 47 17 47 21 0 5 5 9 11 9 5 0 27 11 47 25 20 14 43
25 50 25 16 0 161 120 217 180 22 23 48 51 58 61 9 11 17 22 17 25 0 4 21 34
48 68 102 131 208 289 259 384 67 126 123 241 123 252 0 7 6 24 13 38 8 15 21
42 30 60 9 19 17 38 17 44 0 16 54 128 61 128 4 0 11 21 15 48 3 26 10 52 14
57 4 6 12 51 19 100 13 100 -1 474 -18 484 -10 7 -39 110 -51 186 -20 124 -48
252 -58 272 -7 12 -12 32 -12 44 0 37 -42 169 -90 284 -9 22 -25 60 -35 85
-10 25 -25 52 -32 61 -7 8 -13 25 -13 36 0 11 -7 26 -15 33 -8 7 -15 18 -15
25 0 7 -18 40 -40 73 -22 33 -40 63 -40 66 0 4 -15 27 -32 50 -18 24 -40 54
-48 66 -129 190 -372 428 -595 582 -74 51 -289 178 -301 178 -4 0 -20 7 -37
15 -117 54 -339 118 -522 151 -78 14 -545 28 -610 18z m545 -39 c267 -40 511
-120 735 -243 95 -52 230 -135 255 -158 8 -8 49 -40 90 -73 98 -77 247 -225
327 -326 35 -44 68 -85 73 -92 35 -42 146 -225 189 -311 234 -466 295 -995
176 -1522 -65 -287 -209 -590 -399 -839 -299 -389 -715 -667 -1191 -795 -403
-109 -838 -99 -1250 28 -152 46 -394 157 -493 224 -15 11 -60 41 -100 67 -152
100 -359 295 -488 461 -443 566 -585 1326 -378 2012 66 219 155 409 275 589
371 557 949 911 1612 988 148 17 416 12 567 -10z"/>
<path d="M3715 4824 c-235 -27 -256 -31 -415 -76 -414 -119 -775 -351 -1060
-683 -164 -191 -288 -403 -379 -647 -96 -256 -134 -473 -134 -753 0 -259 30
-447 108 -681 109 -326 280 -600 529 -850 220 -219 457 -375 741 -487 426
-168 915 -192 1365 -67 745 206 1329 806 1518 1560 38 149 49 221 62 400 21
292 -34 638 -144 907 -67 164 -75 182 -115 253 -60 105 -63 110 -125 199 -108
157 -216 276 -366 405 -120 103 -157 129 -171 120 -7 -4 -9 -3 -5 4 10 17
-131 108 -294 188 -209 103 -490 182 -720 203 -107 10 -325 13 -395 5z m1195
-964 c11 -11 20 -27 20 -36 0 -19 -61 -116 -375 -594 -351 -533 -458 -697
-588 -899 -66 -102 -175 -269 -242 -371 -67 -102 -170 -258 -228 -347 -101
-154 -108 -163 -138 -163 -37 0 -56 18 -284 270 -152 168 -247 271 -364 396
-42 45 -137 148 -211 229 -74 81 -170 185 -213 231 -42 45 -77 91 -77 101 0
30 29 63 55 63 13 0 72 -23 132 -51 59 -28 187 -89 285 -135 97 -46 178 -84
181 -84 2 0 74 -33 158 -74 203 -97 266 -126 277 -126 9 0 119 112 427 435
110 116 254 266 320 335 66 69 210 219 320 335 338 354 458 479 474 493 22 18
48 15 71 -8z m-816 -1909 c3 -5 38 -9 78 -10 80 -2 118 -23 118 -68 0 -13 6
-23 13 -23 12 0 30 13 105 78 27 24 99 37 118 22 7 -7 37 -11 66 -10 107 3
118 2 118 -20 0 -11 5 -20 10 -20 6 0 10 8 10 18 0 13 14 21 53 30 63 15 173
16 182 2 3 -5 15 -10 25 -10 11 0 49 -29 85 -63 l66 -64 0 -103 c-1 -122 -7
-164 -30 -184 -10 -9 -53 -19 -106 -26 -50 -5 -94 -10 -100 -11 -31 -4 -124 4
-147 13 -14 5 -29 19 -33 31 l-8 22 -4 -22 c-4 -21 -10 -23 -64 -23 -56 0 -59
1 -59 25 0 39 -33 65 -83 65 -46 0 -53 -6 -77 -74 -10 -27 -13 -28 -61 -24
-28 3 -55 12 -60 19 -7 10 -11 11 -16 2 -9 -13 -24 -16 -80 -14 -39 1 -43 3
-43 26 0 14 -6 25 -13 25 -7 0 -22 8 -33 18 -11 10 -24 17 -31 15 -6 -2 -18 3
-26 12 -16 16 -46 21 -48 8 -1 -5 -3 -27 -3 -51 -3 -57 -14 -66 -75 -57 l-51
7 0 103 c0 57 -3 106 -8 109 -4 2 -3 52 2 110 l9 106 51 0 c28 0 58 5 66 10
19 12 77 13 84 1z"/>
<path d="M4888 1823 c-23 -4 -28 -10 -34 -49 -6 -42 -1 -131 7 -138 6 -5 118
9 124 16 4 3 8 31 10 60 3 49 0 58 -27 86 -16 18 -34 31 -41 31 -7 -1 -24 -4
-39 -6z"/>
</g>
</svg>
